<svg width="60" height="52" viewBox="0 0 60 52" fill="none" xmlns="http://www.w3.org/2000/svg">
<mask id="mask0_1179_102" style="mask-type:luminance" maskUnits="userSpaceOnUse" x="8" y="8" width="43" height="36">
<path d="M50.6255 8.6665H8.54736V43.3332H50.6255V8.6665Z" fill="white"/>
</mask>
<g mask="url(#mask0_1179_102)">
<path d="M26.2992 32.9329C26.2006 31.1663 28.1401 26.5329 31.0001 28.7329C32.841 30.7329 29.5537 36.0996 27.121 36.9663C26.7265 36.0996 26.2006 34.6663 26.3321 32.8996M48.0615 16.6663C38.4295 0.0662632 28.2058 13.7996 36.7858 18.1663C45.8261 22.7663 43.8537 39.7663 32.6438 40.0663C30.6714 40.1329 28.6661 39.1996 27.4826 37.6329C30.1783 35.9996 32.841 34.1329 33.7944 31.1663C34.6819 28.3329 33.4327 25.2663 30.7042 24.5329C27.121 23.5663 23.7022 27.0663 22.7817 30.3329C22.0256 32.9329 22.453 35.9329 23.8994 38.2996C11.3088 40.5996 7.75849 25.7329 19.067 22.4996C21.4339 21.8329 20.8422 18.4329 17.4891 19.1663C3.78079 22.1663 5.55596 44.4996 24.3925 39.0329C26.0033 41.4329 28.6332 42.4996 31.296 43.0663C45.596 46.0329 55.5238 29.6329 48.0615 16.7329" fill="#FF5634"/>
<path d="M31.8875 18.1665C31.8217 22.1665 26.036 22.1665 25.9702 18.1665C26.036 14.1665 31.8217 14.1665 31.9203 18.1665" fill="#FF5634"/>
</g>
</svg>
